<svg xmlns="http://www.w3.org/2000/svg" data-name="Layer 1" width="1131" height="812.2061157226562" style=""><rect id="backgroundrect" width="100%" height="100%" x="0" y="0" fill="none" stroke="none"/><title>software engineer</title><g class="currentLayer" style=""><title>Layer 1</title><rect x="689.3282470703125" y="51.267181396484375" width="80.80152893066406" height="30.09160041809082" fill="#62d1da" opacity="0.3" id="svg_1" class="" fill-opacity="1"/><rect x="823.6259765625" width="80.80152893066406" height="30.09160041809082" fill="#62d1da" opacity="0.3" id="svg_2" class="" fill-opacity="1"/><rect x="829.198486328125" y="93.06107330322266" width="80.80152893066406" height="30.09160041809082" fill="#62d1da" opacity="0.3" id="svg_3" class="" fill-opacity="1"/><rect x="570.6336059570312" y="127.61068725585938" width="80.80152893066406" height="30.09160041809082" fill="#62d1da" opacity="0.3" id="svg_4" class="" fill-opacity="1"/><rect x="545" y="251.3206024169922" width="80.80152893066406" height="30.09160041809082" fill="#62d1da" opacity="0.3" id="svg_5" class="" fill-opacity="1"/><rect x="667.0381469726562" y="248.5343475341797" width="80.80152893066406" height="30.09160041809082" fill="#62d1da" opacity="0.3" id="svg_6" class="" fill-opacity="1"/><polyline points="823.626 14.856 770.13 65.616 829.198 108.107" fill="none" stroke="#9493b6" stroke-miterlimit="10" id="svg_7" class="" stroke-opacity="1" opacity="1" stroke-width="2"/><line x1="689.3282470703125" y1="65.61640930175781" x2="611.0343627929688" y2="127.61068725585938" fill="none" stroke="#9493b6" stroke-miterlimit="10" id="svg_8" class="" stroke-opacity="1" stroke-width="2"/><polyline points="585.401 251.297 611.034 157.702 707.439 248.534" fill="none" stroke="#9493b6" stroke-miterlimit="10" id="svg_9" class="" stroke-opacity="1" stroke-width="2"/><rect x="144.3282470703125" y="82.26718139648438" width="80.80152893066406" height="30.09160041809082" fill="#62d1da" opacity="0.3" id="svg_10" class="" fill-opacity="1"/><rect x="278.6259460449219" y="31" width="80.80152893066406" height="30.09160041809082" fill="#62d1da" opacity="0.3" id="svg_11" class="" fill-opacity="1"/><rect x="284.1984558105469" y="124.06107330322266" width="80.80152893066406" height="30.09160041809082" fill="#62d1da" opacity="0.3" id="svg_12" class="" fill-opacity="1"/><rect x="25.633590698242188" y="158.61068725585938" width="80.80152893066406" height="30.09160041809082" fill="#62d1da" opacity="0.3" id="svg_13" class="" fill-opacity="1"/><rect y="282.32061767578125" width="80.80152893066406" height="30.09160041809082" fill="#62d1da" opacity="0.3" id="svg_14" class="" fill-opacity="1"/><rect x="122.03816986083984" y="279.53436279296875" width="80.80152893066406" height="30.09160041809082" fill="#62d1da" opacity="0.3" id="svg_15" class="" fill-opacity="1"/><polyline points="278.626 45.856 225.13 96.616 284.198 139.107" fill="none" stroke="#9493b6" stroke-miterlimit="10" id="svg_16" class="" stroke-opacity="1" stroke-width="2"/><line x1="144.3282470703125" y1="96.61640930175781" x2="66.03434753417969" y2="158.61068725585938" fill="none" stroke="#9493b6" stroke-miterlimit="10" id="svg_17" class="" stroke-opacity="1" stroke-width="2"/><polyline points="40.401 282.297 66.034 188.702 162.439 279.534" fill="none" stroke="#9493b6" stroke-miterlimit="10" id="svg_18" class="" stroke-opacity="1" stroke-width="2"/><line x1="365" y1="139.10687255859375" x2="456.6335754394531" y2="139.10687255859375" fill="none" stroke="#9493b6" stroke-miterlimit="10" id="svg_19" class="" stroke-opacity="1" stroke-width="2"/><rect x="415.5" y="123.70610809326172" width="95" height="30" fill="#00727a" id="svg_20" class=""/><line x1="510.62322998046875" y1="138.70611572265625" x2="570.6336059570312" y2="138.70611572265625" fill="none" stroke="#9493b6" stroke-miterlimit="10" id="svg_21" class="" stroke-opacity="1" stroke-width="2"/><line x1="415.04486083984375" y1="138.70611572265625" x2="359.427490234375" y2="45.85639953613281" fill="none" stroke="#9493b6" stroke-miterlimit="10" id="svg_22" class="" stroke-opacity="1" stroke-width="2"/><ellipse cx="691" cy="714.2061157226562" rx="440" ry="98" fill="#f2f2f2" id="svg_23" class=""/><polygon points="894.984 391.611 852.078 606.582 842.79 606.582 841.768 604.994 838.809 600.39 875.964 399.572 881.604 397.21 894.984 391.611" fill="#47465a" id="svg_24"/><polygon points="881.604 397.21 841.768 604.994 838.809 600.39 875.964 399.572 881.604 397.21" opacity="0.1" id="svg_25"/><polygon points="959.564 684.432 948.533 687.988 945.852 688.855 942.313 680.893 881.604 403.96 887.916 402.545 901.177 399.572 959.564 684.432" fill="#47465a" id="svg_26"/><polygon points="948.533 687.988 945.852 688.855 942.313 680.893 881.604 403.96 887.916 402.545 948.533 687.988" opacity="0.1" id="svg_27"/><polygon points="433.636 391.611 423.905 670.277 412.753 672.754 411.962 672.931 408.865 667.181 415.058 394.264 421.016 393.415 433.636 391.611" fill="#47465a" id="svg_28"/><polygon points="421.016 393.415 412.753 672.754 411.962 672.931 408.865 667.181 415.058 394.264 421.016 393.415" opacity="0.1" id="svg_29"/><polygon points="491.581 768.917 480.045 770.907 478.753 771.128 475.215 763.609 419.039 399.572 420.658 399.081 429.213 396.476 491.581 768.917" fill="#47465a" id="svg_30"/><polygon points="480.045 770.907 478.753 771.128 475.215 763.609 419.039 399.572 420.658 399.081 480.045 770.907" opacity="0.1" id="svg_31"/><path d="M735.74611,369.0517702319336 l42.95118,54.88207 a13.9279,13.9279 0 0 0 12.58842,5.24947 l176.3179,-20.64984 a13.92791,13.92791 0 0 0 12.30779,-13.83336 v-40.6875 z" fill="#7a799c" id="svg_32"/><path d="M880.3875,377.89835h11.94287a0,0,0,0,1,0,0v17.23649a4.4376,4.4376,0,0,1-4.4376,4.4376H884.8251a4.4376,4.4376,0,0,1-4.4376-4.4376V377.89835A0,0,0,0,1,880.3875,377.89835Z" fill="#47465a" id="svg_33"/><path d="M419.039,403.9957202319336 l42.95118,54.88206 a13.92791,13.92791 0 0 0 12.58842,5.24948 l176.3179,-20.64984 A13.92793,13.92793 0 0 0 663.20425,429.6440502319336 V388.9565502319336 z" fill="#7a799c" id="svg_34"/><path d="M563.68035,412.84229h11.94287a0,0,0,0,1,0,0v17.23649a4.4376,4.4376,0,0,1-4.4376,4.4376H568.118a4.4376,4.4376,0,0,1-4.4376-4.4376V412.84229A0,0,0,0,1,563.68035,412.84229Z" fill="#47465a" id="svg_35"/><path d="M468.38475,431.7911702319336 l524.45934,-61.09027 a7.71254,7.71254 0 0 0 2.57751,-14.54866 l-93.81678,-47.18187 a108.58678,108.58678 0 0 0 -59.80247,-11.01708 L375.8605,345.4628502319336 a8.91843,8.91843 0 0 0 -5.45875,15.09495 l54.25911,55.66844 A52.67339,52.67339 0 0 0 468.38475,431.7911702319336 z" fill="#47465a" id="svg_36" class=""/><path d="M1050.54368,362.4215002319336 l-5.61,-3.101 s-6.05628,4.45811 -10.99,23.23965 s9.22074,0.20375000000000001 9.22074,0.20375000000000001 l6.1926,-12.82752 z" fill="#47465a" id="svg_37"/><path d="M990.52728,534.4826002319336 s-5.75027,26.982 -8.40424,34.50162 c-1.3004200000000001,3.68018 -7.58157,7.04629 -14.54371,9.62064 a97.37869,97.37869 0 0 1 -19.07325,4.9762 c-7.5195799999999995,0.8846600000000001 -103.94718,-14.15451 -150.834,-24.32806 c-31.58664,-6.85167 -35.66943,-14.71185 -34.97051,-19.1086 a6.37978,6.37978 0 0 1 1.79588,-3.45015 s46.44448,-31.40532 62.81063,-46.44449 s48.65613,-3.0963 84.0424,3.0963 S990.52728,534.4826002319336 990.52728,534.4826002319336 z" fill="#47465a" id="svg_38"/><path d="M1044.93367,359.32055023193357 s21.6741,14.15451 -51.31009,43.34818 c0,0 -39.669,22.36656 -34.50509,114.50318 a25.26971,25.26971 0 0 0 3.673,11.702 c7.5302,12.3852 23.66634,43.73743 -3.22723,47.62992 V583.5810502319335 s48.65613,-24.32806 53.96407,-45.1175 s23.00107,-136.23715 31.84764,-146.853 S1059.97284,364.18616023193357 1044.93367,359.32055023193357 z" fill="#47465a" id="svg_39"/><path d="M967.57933,578.6048602319336 a97.37869,97.37869 0 0 1 -19.07325,4.9762 c-7.5195799999999995,0.8846600000000001 -103.94718,-14.15451 -150.834,-24.32806 c-31.58664,-6.85167 -35.66943,-14.71185 -34.97051,-19.1086 c20.76287,7.09937 88.18264,29.63158 112.378,31.49379 c28.75135,2.21164 83.67966,8.36 87.842,4.18 C964.52277,574.2081202319335 966.16379,575.9066402319336 967.57933,578.6048602319336 z" opacity="0.1" id="svg_40"/><path d="M714.95667,762.7240502319336 l42.0212,-191.97054 s7.51959,-20.3471 24.77039,-19.46245 L797.67209,559.2530502319336 s-26.53971,-6.1926 -32.29,14.1545 S722.91858,762.7240502319336 722.91858,762.7240502319336 z" fill="#47465a" id="svg_41"/><polygon points="815.808 675.143 832.616 557.926 840.136 557.926 822.885 675.143 815.808 675.143" fill="#47465a" id="svg_42"/><path d="M976.8151,789.7061002319336 l-15.92383,-183.124 s0,-15.4815 7.96192,-23.00108 s33.66494,-28.97011 33.66494,-28.97011 s6.58694,-1.5505499999999999 11.89488,13.48861 s42.0212,165.43083 42.0212,165.43083 l-7.07725,3.0963 L1003.7971299999999,563.2339502319336 l-31.40532,29.636 s-6.19259,11.05821 -3.0963,21.23176 s14.59684,175.60438 14.59684,175.60438 z" fill="#47465a" id="svg_43"/><polygon points="927.717 579.158 967.526 590.658 976.373 582.254 953.372 579.158 927.717 579.158" fill="#47465a" id="svg_44"/><path d="M573.81275,256.3042202319336 l6.45492,96.82373 l141.10276,-13.71218 l-5.61479,-94.64939 a9.51952,9.51952 0 0 0 -10.30071,-8.9223 L582.5133,246.1849602319336 A9.51953,9.51953 0 0 0 573.81275,256.3042202319336 z" fill="#7a799c" id="svg_45"/><polygon points="768.7 367.282 628.039 382.627 622.731 383.206 581.595 356.667 581.595 350.916 721.37 338.328 768.7 367.282" fill="#7a799c" id="svg_46"/><polygon points="628.039 382.627 622.731 383.206 581.595 356.667 581.595 351.518 628.039 382.627" opacity="0.1" id="svg_47"/><polygon points="583.364 255.373 588.23 341.627 712.082 330.127 707.658 246.084 583.364 255.373" fill="#9493b6" id="svg_48" class=""/><polygon points="657.233 365.513 672.272 375.687 717.832 371.263 702.35 361.532 657.233 365.513" opacity="0.1" id="svg_49"/><polygon points="595.749 353.128 614.769 367.282 736.41 355.782 714.736 341.627 595.749 353.128" fill="#9493b6" id="svg_50"/><rect x="811.6054077148438" y="222.41990661621094" width="89.79267120361328" height="89.79267120361328" fill="#38312b" id="svg_51" class="" fill-opacity="1"/><rect x="812.5062866210938" y="223.32080078125" width="89.79267120361328" height="89.79267120361328" opacity="0.1" id="svg_52" class="" fill="#3d3834" fill-opacity="1"/><path d="M842.529,263.9737402319336 s12.66681,34.30595 0,40.63936 s45.38941,0 45.38941,0 l16.3613,-13.1946 s-36.94487,-10.55568 -31.667,-34.83373 S842.529,263.9737402319336 842.529,263.9737402319336 z" fill="#fbbebe" id="svg_53"/><path d="M842.529,263.9737402319336 s12.66681,34.30595 0,40.63936 s45.38941,0 45.38941,0 l16.3613,-13.1946 s-36.94487,-10.55568 -31.667,-34.83373 S842.529,263.9737402319336 842.529,263.9737402319336 z" opacity="0.1" id="svg_54"/><path d="M738.55563,608.0887902319336 s47.50054,67.02855 39.58378,85.501 s-3.69448,30.08368 -19.528,36.41708 s-20.05578,17.94465 -6.3334,17.41687 s31.667,-4.22227 34.30594,-8.97232 s8.97233,-27.44476 17.94465,-30.61147 S830.39,692.5342002319336 818.251,677.7562602319335 s-42.7254,-69.21048 -40.36292,-74.71681 S738.55563,608.0887902319336 738.55563,608.0887902319336 z" fill="#fbbebe" id="svg_55"/><path d="M837.779,475.61505023193354 s-98.16779,6.33341 -123.50142,30.08368 s22.16692,112.418 27.44476,113.47352 s46.445,-3.1667 44.86162,-14.777940000000001 s-29.55589,-59.11179 -29.55589,-59.11179 s36.41708,-13.1946 56.47287,-16.3613 s42.22271,-17.94465 42.22271,-17.94465 z" fill="#9493b6" id="svg_56"/><path d="M792.91736,460.8371102319336 s1.58335,58.584 16.3613,60.69514 s0,-44.86163 0,-44.86163 l-0.52778,-17.94465 z" fill="#fbbebe" id="svg_57"/><path d="M837.779,307.2520502319336 s-27.44476,-7.91676 -32.7226,13.19459 s-6.861190000000001,93.94552 -6.861190000000001,93.94552 l-9.50011,58.05622 s17.41687,-5.27784 21.11135,-2.63892 l22.16692,-27.97254 z" fill="#00727a" id="svg_58"/><path d="M837.779,307.2520502319336 s-27.44476,-7.91676 -32.7226,13.19459 s-6.861190000000001,93.94552 -6.861190000000001,93.94552 l-9.50011,58.05622 s17.41687,-5.27784 21.11135,-2.63892 l22.16692,-27.97254 z" opacity="0.1" id="svg_59"/><path d="M875.27932,619.3285402319336 s18.44475,36.2608 29.52821,35.733 s21.63914,-7.389 26.917,14.25016 s-1.05556,15.83352 5.27784,28.500329999999998 s7.389,34.83373 -4.75,40.11157 s-23.22249,5.80562 -23.75027,0 s10.55567,-5.80562 -2.11114,-26.38919 s-39.58378,-58.05622 -50.66724,-61.75071 S875.27932,619.3285402319336 875.27932,619.3285402319336 z" fill="#fbbebe" id="svg_60"/><path d="M923.28,453.97592023193357 s38.00044,63.33406 13.1946,81.80649 s-98.69557,53.834 -98.69557,53.834 s39.58378,26.917 41.69492,35.8893 s-19.00022,33.25038 -26.38919,33.77816 s-29.02811,-24.27805 -52.2506,-30.61146 s-37.47265,-51.72281 -12.139,-68.6119 s49.0839,-44.86162 49.0839,-44.86162 l-7.3847000000000005,-40.63369 z" fill="#9493b6" id="svg_61"/><path d="M890.33989,242.76705023193358 c0,22.444490000000002 -22.99133,40.99863 -45.43582,40.99863 a40.63935,40.63935 0 1 1 0,-81.27871 C867.34856,202.4869302319336 890.33989,220.32251023193362 890.33989,242.76705023193358 z" fill="#fbbebe" id="svg_62" class=""/><path d="M855.19585,301.4463902319336 s36.41708,-15.83351 36.41708,-17.94465 s21.11136,4.75006 25.86141,8.97233 s7.389,3.69449 10.55568,12.139 s-15.83352,87.08433 -15.83352,87.08433 s10.55568,60.69514 16.3613,66.50076 S881.585,472.44835023193355 881.585,472.44835023193355 s-34.83373,6.33341 -40.63935,8.97233 s-16.3613,6.3334 -14.25016,0 s11.08346,-11.08346 -4.22228,-19.00022 c0,0 5.27784,-25.86141 0,-37.47265 s-29.55589,-53.834 -10.02789,-84.44541 s28.500329999999998,-41.69493 28.500329999999998,-41.69493 S847.80688,304.6131002319336 855.19585,301.4463902319336 z" fill="#00727a" id="svg_63" class=""/><path d="M866.8071,445.5313802319336 S825.64,463.7901802319336 813.237,465.4803502319336 s-49.87557,11.19027 -29.292,19.63481 s51.72281,-4.22227 51.72281,-4.22227 l43.80606,-18.47243 z" fill="#fbbebe" id="svg_64"/><path d="M911.12933,299.8273802319336 s15.20178,-7.3533100000000005 19.424,18.5081 s19.00022,107.66789 0,119.80692 s-62.80628,31.667 -62.80628,31.667 s-25.8614,-17.41686 -13.72237,-23.75027 s41.16713,-24.27806 45.3894,-30.61146 s8.48829,-77.027 1.09932,-88.63829 S911.12933,299.8273802319336 911.12933,299.8273802319336 z" opacity="0.1" id="svg_65"/><path d="M910.08537,293.52964023193357 s21.11135,-1.05557 25.33362,24.80584 s19.00022,107.66789 0,119.80692 s-62.80627,31.667 -62.80627,31.667 s-25.86141,-17.41686 -13.72238,-23.75027 s41.16714,-24.27806 45.38941,-30.61146 S901.113,343.1413202319336 893.72407,331.5300502319336 S910.08537,293.52964023193357 910.08537,293.52964023193357 z" fill="#00727a" id="svg_66" class=""/><path d="M832.1909212192345,171.11128657087326 c-6.47937,0.8817900000000011 -13.42907,3.252 -16.68936,8.92037 c-1.59532,2.77365 -2.1110700000000002,6.02743 -3.34,8.98173 c-3.3914400000000002,8.15262 -11.628,13.02111 -17.57449,19.54846 c-7.7497,8.50671 -11.59829,21.32569 -7.02776,31.88657 c1.7698500000000008,4.08952 4.64406,7.5929400000000005 6.82374,11.47953 c6.081,10.84307 6.40545,23.86541 6.5784,36.29605 l0.3400600000000005,24.441300000000002 c0.05193000000000006,3.73208 0.09336000000000017,7.53953 -1.0303,11.09882 s-3.63293,6.89273 -7.19212,8.01668 a18.64007,18.64007 0 0 0 21.70774,-7.41277 a19.04939,19.04939 0 0 1 -5.82228,16.89942 c9.676,-2.2787100000000002 17.79017,-9.31636 22.90211,-17.84195 s7.4824,-18.44239 8.54471,-28.32617 c0.56186,-5.22762 0.7598600000000006,-10.63308 -0.8917000000000009,-15.62468 c-1.16321,-3.51566 -3.1921,-6.66756 -5.1182,-9.83032 c-4.96553,-8.15368 -9.43689,-16.82614 -11.03719,-26.23773 s0.0064100000000000094,-19.738 6.11766,-27.07224 a24.45445,24.45445 0 0 1 19.315,-8.85635 a21.50289,21.50289 0 0 1 17.9282,10.97538 c1.4118,2.6576400000000007 3.42145,6.25954 6.28226,5.32575 a15.52284,15.52284 0 0 0 1.549,-0.7605400000000007 c3.19044,-1.45194 6.81442,1.41256 8.22125,4.62315 c4.43733,10.12665 -3.7377700000000003,21.18131 -4.58276,32.20513 c-0.786,10.25474 4.93126,19.92613 11.765320000000001,27.612000000000002 a90.71726,90.71726 0 0 0 44.35273,27.24968 a12.44917,12.44917 0 0 1 -6.4337,-3.99663 a84.47007,84.47007 0 0 0 20.75653,-1.7400000000000002 c-7.42625,-5.59639 -14.90482,-11.24044 -21.10471,-18.17083 s-11.1103,-15.316 -12.44738,-24.5182 c-1.79441,-12.34986 2.80533,-25.72347 -2.45361,-37.04082 c-4.80791,-10.34671 -16.73195,-16.12851 -21.0866,-26.674 c-4.42322,-10.71155 -7.29082,-20.01739 -19.00212,-24.68049 C859.7594112192345,172.79819657087327 846.0010012192345,169.23183657087327 832.1909212192345,171.11128657087326 z" fill="#5b4040" id="svg_67" class="" fill-opacity="1"/></g></svg>